<?xml version="1.0" encoding="UTF-8"?><svg id="Layer_1" xmlns="http://www.w3.org/2000/svg" viewBox="0 0 486.56 273.62"><defs><style>.cls-1{fill:#e1d4c2;}.cls-1,.cls-2,.cls-3{stroke-width:0px;}.cls-2{fill:#191317;}.cls-3{fill:#fff7ea;}</style></defs><path class="cls-2" d="M197.44,273.62c-63.7,0-127.5,0-191.2-.1-1.6,0-3.3.1-4.6-1-1.1-1-2-2.1-1.5-3.7.5-1.5,1.5-2.6,3.3-2.6s2.2-.1,3.3-.2c9.7,0,19.5-.1,29.2.2,4.6.1,8.7-1,12.7-3.2,23.6-12.9,43.5-30.8,63.6-48.2,1.3-1.1.8-1.7-.2-2.5-3.1-2.4-6.2-5-9.3-7.4-4.1-3.1-4.9-3.2-9,.2-6.7,5.4-13.2,11-19.8,16.6-6.7,5.6-13.2,11.3-19.9,16.9-3.9,3.3-7.2,2.3-7.9-2.2.4-1.5,1.3-2.7,2.5-3.7,14.8-12.4,29.5-24.9,44.3-37.3,4.5-3.8,6.3-3.8,10.9-.2,4.6,3.8,9.3,7.5,13.9,11.4,1.3,1.1,2.2,1.2,3.6-.1,2.5-2.5,5.2-4.9,7.9-7.2,1.3-1.1,1.4-1.9.4-3.2-9.8-14.5-15.2-30.6-17.2-47.8-3.7-32.4,2.3-62.5,21.4-89.6,19.7-28,45.6-47.1,79.1-54.9,43.3-10.1,82,0,115.9,28.5,19.5,16.4,33.9,36.6,41,61.3,9.8,34.1,7.2,67.1-10.3,98.5-1.1,2-4,3.8-3.1,6.2.8,2,3.2,3.3,4.9,4.9,3.5,3.2,7,3.3,10.7.4,3.7-3,7.4-6.1,11.1-9.1,3.5-2.8,5-2.8,8.2,0,12.5,10.7,24.9,21.5,37.4,32.3,1.5,1.3,2.8,2.6,3.1,4.7-1.6,3.9-3.6,4.5-6.9,2-.7-.5-1.3-1-1.9-1.5-10.5-9-21-17.9-31.6-26.9-3.6-3.1-4.1-3.2-7.9-.4-2.9,2.2-5.6,4.7-8.5,6.9-2.1,1.5-2.2,2.4-.1,4.2,8.3,7.4,16.8,14.5,25.3,21.5,11.6,9.6,23.7,18.5,37.2,25.3,2.8,1.4,5.6,3.4,8.7,3.4,10.6.1,21.1-.1,31.7-.1s3.2.2,4.9.1c2.1,0,3.6.9,3.8,3,.2,2.2-1,3.7-3.1,4.3-1,.3-2,.1-3,.1h-192.8M136.94,192.22c15.9-15.6,31.5-31,47.1-46.4,18.5-18.2,36.9-36.4,55.4-54.6,3.1-3,5.3-3.1,8.1-.3,21.1,21,42.3,41.9,63.4,62.9,12.3,12.2,24.7,24.5,36.9,36.8,1.3,1.3,1.9,1.7,2.9-.3,1.6-3.2,3.7-6.1,5.2-9.3,12.9-28.7,14.5-58.2,4.7-88-8.9-26.7-25.9-47.5-49-63.3-26.3-18.1-55.5-24.5-86.8-19.9-30.8,4.4-56,19.7-76.1,43.2-25.2,29.6-33.8,63.8-26.8,101.8,2.5,13.1,7.1,25.6,15,37.4h0ZM425.54,266.22c-19.1-12.1-35.9-26.7-52.7-41.2-19.5-16.8-37.5-35.1-55.7-53.3s-34.6-35.2-52.4-52.3c-1.5-1.5-2.3-1.5-3.8,0-5.4,5.5-11,10.8-16.6,16.2-4.7,4.6-9.4,9.2-14.2,13.8-1.1,1-2.3,2-4.1,1.3-1.5-.6-2.4-1.7-2.6-3.1-.3-1.9,1.1-3.2,2.3-4.4,9.8-9.6,19.5-19.3,29.5-28.7,2.5-2.3.6-3.2-.5-4.8-1.7-2.2-2.6-.6-3.7.5-9.6,9.3-19.1,18.5-28.7,27.8-1.3,1.3-2.6,2.6-4.1,3.6-1.8,1.2-3.8.9-5.2-.8-1.3-1.7-1.2-3.6.5-5.1.9-.8,1.9-1.5,2.8-2.3,9.7-9.4,19.3-18.9,29.1-28.2,2.2-2.1.9-3.1-.3-4.7-1.7-2.1-2.5-.4-3.6.6-18.6,18.2-37.2,36.3-55.7,54.5-24.9,24.7-49.3,49.9-76.1,72.5-15.5,13.1-30.9,26.3-48.1,37.2-.4.2-.6.5-.3,1,.6.5,1.3.3,2,.3h138.8c2.2,0,2.7-.8,3-2.7,1.5-9.9,1-19.9,1.5-29.8.1-1.7-.8-1.7-2-1.7h-12.8c-4.4,0-7.7-3.5-7.4-7.8.1-.8.2-1.3,1.3-1.1,4.4.9,8.9.3,13.4.3s6.2,1.2,7.5-.6c1.3-1.7.3-5.1.5-7.7.1-1.8-.6-2.2-2.2-2.1-4.2.1-8.3,0-12.5-.1-1.4,0-3,0-3.5-1.7-.5-1.8-.9-3.6-1.3-5.6,37.7,1.8,75.2,1.6,112.7.1-.4,1.5-1,2.8-1,4-.1,2.2-1.2,3-3.3,3s-4.3.1-6.4.3c-2.6.2-6.3-1.1-7.5.6-1.3,1.8-.4,5.2-.5,8,0,1.2.1,1.9,1.6,1.9,6.3-.2,12.6.4,18.8-.4,1.2-.2,1.4.1,1.5,1.1.5,3.8-2.9,7.8-6.7,7.8s-8.7,0-13.1-.1c-1.4,0-2,.2-2,1.8.3,9.7,0,19.5.9,29.2.2,2.4,1.1,3.3,3.8,3.3,40.6-.1,81.1-.1,121.7-.1,5.7-.3,11.5-.3,17.4-.3h0ZM244.04,266.22h0c8.5-.1,17.1-.1,25.6,0,1.9,0,2.7-.3,2.6-2.5-.1-9.9,0-19.7.1-29.6,0-1.7-.5-2.2-2.2-2.2-17.4.1-34.7,0-52.1,0-2.3,0-2.3.3-2.3,2.1.1,10,.1,19.9,0,29.9,0,1.9.6,2.3,2.4,2.3h25.9ZM227.64,223.52h4.3c8.2,0,8.1,0,7.6-8.3-.1-1.6-.6-2.1-2.2-2-4.5.1-8.9,0-13.4,0s-6.1-1.2-7.6.4c-1.6,1.7-.3,5.2-.5,7.9v.3c-.2,1.3.4,1.7,1.7,1.7h10.1ZM260.44,223.52c3.2,0,6.5-.1,9.7,0,1.5,0,2.3-.2,2.1-2-.2-2.1-.1-4.3,0-6.4.1-1.6-.5-2.1-2.1-2-6.5.1-13,.1-19.5,0-1.5,0-2.2.2-2.1,2,.2,2.1.1,4.3,0,6.4-.1,1.6.5,2.1,2.1,2h9.8Z"/><path class="cls-1" d="M37.14,243.42c-1.4,0,5.5-5.3,9-7,.7,4.5,4,5.5,7.9,2.2,6.7-5.6,13.3-11.3,19.9-16.9s13.1-11.2,19.8-16.6c4.1-3.3,4.9-3.3,9-.2,3.2,2.4,6.2,4.9,9.3,7.4,1,.8,1.5,1.4.2,2.5-20.2,17.5-40,35.3-63.6,48.2-4,2.2-8.1,3.4-12.7,3.2-9.7-.3-19.5-.2-29.2-.2,2.3-3.5,6.3-4.7,9.5-7.2,3.7-2.8,7.5-5.4,11.3-8.1l9.6-7.3h0Z"/><path class="cls-1" d="M455.04,249.12c2.6,3.2,6.4,4.8,9.4,7.4,4.2,3.5,9.6,5.3,13.3,9.5-10.6.1-21.1.3-31.7.1-3.1,0-5.9-2-8.7-3.4-13.5-6.8-25.6-15.7-37.2-25.3-8.5-7.1-17-14.2-25.3-21.5-2-1.8-1.9-2.7.1-4.2,2.9-2.2,5.6-4.7,8.5-6.9,3.8-2.8,4.3-2.7,7.9.4,10.5,9,21,17.9,31.6,26.9.6.5,1.2,1.1,1.9,1.5,3.4,2.5,5.4,1.9,6.9-2,4,1.2,6.8,4.2,10,6.6,1.9,1.5,4.3,2.7,5.5,5.1l7.8,5.8h0Z"/><path class="cls-3" d="M136.94,192.22c-7.9-11.7-12.5-24.2-14.9-37.4-7-38.1,1.6-72.3,26.8-101.8,20.1-23.5,45.2-38.8,76.1-43.2,31.3-4.5,60.5,1.9,86.8,19.9,23.1,15.9,40.2,36.6,49,63.3,9.9,29.8,8.2,59.3-4.7,88-1.4,3.2-3.6,6.1-5.2,9.3-1,2-1.6,1.7-2.9.3-12.3-12.3-24.6-24.6-36.9-36.8-21.1-21-42.3-42-63.4-62.9-2.8-2.8-5-2.7-8.1.3-18.5,18.2-36.9,36.4-55.4,54.6-15.7,15.3-31.3,30.7-47.2,46.4h0Z"/><path class="cls-3" d="M425.54,266.22h-17.5c-40.6,0-81.1,0-121.7.1-2.7,0-3.6-.9-3.8-3.3-.9-9.7-.7-19.5-.9-29.2,0-1.6.6-1.8,2-1.8,4.4.1,8.7.1,13.1.1s7.2-4,6.7-7.8c-.1-1-.4-1.3-1.5-1.1-6.3.8-12.6.1-18.8.4-1.5.1-1.6-.7-1.6-1.9.1-2.7-.8-6.2.5-8,1.3-1.7,4.9-.4,7.5-.6,2.1-.1,4.3-.2,6.4-.3,2,0,3.2-.8,3.3-3,0-1.3.6-2.5,1-4-37.6,1.5-75,1.7-112.7-.1.5,2,.8,3.8,1.3,5.6.5,1.7,2.1,1.7,3.5,1.7,4.2.1,8.3.1,12.5.1s2.4.3,2.2,2.1c-.2,2.6.8,6-.5,7.7-1.4,1.7-4.9.6-7.5.6-4.5-.1-8.9.5-13.4-.3-1-.2-1.2.3-1.3,1.1-.3,4.3,3,7.8,7.4,7.8h12.8c1.2,0,2.1,0,2,1.7-.5,9.9,0,19.9-1.5,29.8-.3,1.9-.9,2.7-3,2.7-46.3-.1-92.5,0-138.8,0-2,0-1.4.2-2-.3-.3-.5,0-.8.3-1,17.2-10.9,32.6-24.1,48.1-37.2,26.8-22.6,51.2-47.8,76.1-72.5,18.5-18.3,37.1-36.4,55.7-54.5,1-1,1.9-2.6,3.6-.6,1.3,1.6,2.5,2.6.3,4.7-9.8,9.3-19.4,18.8-29.1,28.2-.9.8-1.9,1.5-2.8,2.3-1.7,1.6-1.8,3.4-.5,5.1,1.3,1.7,3.3,2.1,5.2.8,1.5-1,2.8-2.3,4.1-3.6,9.6-9.2,19.1-18.5,28.7-27.8,1.1-1.1,2.1-2.7,3.7-.5,1.2,1.6,3,2.5.5,4.8-10,9.4-19.7,19.1-29.5,28.7-1.2,1.2-2.6,2.5-2.3,4.4.2,1.4,1.1,2.5,2.6,3.1,1.8.7,3-.3,4.1-1.3,4.8-4.6,9.5-9.2,14.2-13.8,5.5-5.4,11.1-10.7,16.6-16.2s2.2-1.4,3.8,0c17.8,17.1,35,34.9,52.4,52.3s36.2,36.5,55.7,53.3c16.8,14.9,33.6,29.5,52.8,41.5h0ZM236.44,205.22c25.7,0,46.9.2,68.1-1.7,2.3-.2,3.5-1.1,4.3-3.1s.9-2.1,1.1-3.1c.3-2.4,1.3-3.7,4-3.8,2.9-.1,4.3-1.9,4-4.9-.1-1-.2-2-.2-3,0-2.2-1-2.7-3-2.3-16.7,3.2-33.6,4.6-50.5,5.2-16.1.5-32.3.6-48.5-.4-13.9-.8-27.7-2.1-41.4-4.6-4.7-.8-3.7-1.3-4.5,3.4-.8,4.4-.1,5.9,3.1,6.3,3.2.5,4.6,1.9,4.9,5.1.2,2.1.9,4.9,4,5,4.7,0,9.3,1.1,14.1,1.2,14.9.4,29.9.8,40.5.7h0ZM331.84,256.12c2.1-.3,3.7-1.2,3.6-3.4,0-2.3-1.7-3.5-3.8-3.4-1.9.1-3.6,1-3.6,3.3s1.8,3.3,3.8,3.5ZM156.44,256.22c2.1-.2,3.5-1.4,3.4-3.5-.2-2.3-1.9-3.5-4-3.4-1.9.1-3.5,1.2-3.4,3.5.2,2.4,1.9,3.2,4,3.4ZM347.94,249.32c-2,.3-3.8,1.1-3.8,3.4s1.9,3.4,3.9,3.4,3.4-1.1,3.4-3.4-1.5-3-3.5-3.4ZM364.24,256.12c2.2-.2,3.6-1.3,3.5-3.5,0-2.2-1.7-3.3-3.7-3.3-2,.1-3.7,1.2-3.6,3.7.1,2.4,1.9,2.9,3.8,3.1h0ZM126.94,253.02c-.2-2.4-1.7-3.6-3.8-3.6-2-.1-3.6.9-3.7,3.2-.1,2.4,1.7,3.4,3.7,3.6,2.1,0,3.3-1.3,3.8-3.2ZM143.44,253.12c0-2.4-1.5-3.6-3.5-3.7-2.2-.1-3.7,1.2-3.8,3.4-.1,2.2,1.7,3.2,3.6,3.4,1.9.1,3.5-.9,3.7-3.1h0Z"/><path class="cls-3" d="M244.04,266.22c-8.6,0-17.3-.1-25.9,0-1.8,0-2.4-.4-2.4-2.3.1-10,.1-19.9,0-29.9,0-1.8.7-2.1,2.3-2.1,17.4.1,34.7.1,52.1,0,1.7,0,2.2.5,2.2,2.2-.1,9.9-.2,19.7-.1,29.6,0,2.1-.8,2.5-2.6,2.5-8.6-.1-17.1,0-25.6,0h0Z"/><path class="cls-3" d="M227.64,223.52c-3.3,0-6.7-.1-10,0-1.3,0-1.9-.4-1.7-1.7v-.3c.1-2.7-1.1-6.2.5-7.9,1.5-1.6,5-.4,7.6-.4,4.5-.1,8.9.1,13.4,0,1.6,0,2,.5,2.2,2,.5,8.3.6,8.3-7.6,8.3h-4.4Z"/><path class="cls-3" d="M260.44,223.52c-3.2,0-6.5-.1-9.7,0-1.6,0-2.2-.4-2.1-2,.1-2.1.1-4.3,0-6.4-.1-1.7.6-2,2.1-2,6.5.1,13,.1,19.5,0,1.6,0,2.2.4,2.1,2-.1,2.1-.1,4.3,0,6.4.1,1.7-.6,2-2.1,2h-9.8Z"/><path class="cls-2" d="M236.44,205.22c-10.6,0-25.6-.3-40.6-.6-4.8-.1-9.4-1.2-14.1-1.2s-3.7-2.9-4-5c-.4-3.3-1.7-4.6-4.9-5.1s-3.9-2-3.1-6.3c.8-4.6-.2-4.2,4.5-3.4,13.7,2.4,27.5,3.8,41.4,4.6,16.1.9,32.3.9,48.5.4,16.9-.6,33.8-2,50.5-5.2,2-.4,3.1.1,3,2.3,0,1,.1,2,.2,3,.4,3-1.1,4.8-4,4.9-2.7.1-3.6,1.4-4,3.8-.2,1.1-.7,2.1-1.1,3.1-.7,2-1.9,2.9-4.3,3.1-21.1,1.8-42.3,1.6-68,1.6h0Z"/><path class="cls-2" d="M331.84,256.12c-2-.2-3.7-1-3.8-3.4,0-2.3,1.7-3.3,3.6-3.3,2.1-.1,3.8,1,3.8,3.4s-1.5,3-3.6,3.3Z"/><path class="cls-2" d="M156.44,256.22c-2.1-.2-3.8-1-4-3.4-.2-2.3,1.4-3.4,3.4-3.5,2.1-.1,3.8,1.1,4,3.4.1,2.1-1.3,3.3-3.4,3.5Z"/><path class="cls-2" d="M347.94,249.32c2,.3,3.5,1.1,3.5,3.4s-1.5,3.4-3.4,3.4-3.9-1-3.9-3.4,1.8-3,3.8-3.4Z"/><path class="cls-2" d="M364.24,256.12c-1.9-.2-3.6-.7-3.7-3.1-.1-2.5,1.6-3.6,3.6-3.7,1.9-.1,3.6,1.1,3.7,3.3-.1,2.2-1.5,3.3-3.6,3.5h0Z"/><path class="cls-2" d="M126.94,253.02c-.5,1.9-1.7,3.3-3.7,3.1-2-.2-3.8-1.2-3.7-3.6,0-2.2,1.7-3.2,3.7-3.2,2,.1,3.4,1.3,3.7,3.7Z"/><path class="cls-2" d="M143.44,253.12c-.2,2.2-1.8,3.2-3.7,3.1s-3.6-1.2-3.6-3.4c.1-2.2,1.6-3.6,3.8-3.4,2,0,3.5,1.3,3.5,3.7h0Z"/><path class="cls-2" d="M247.04,33.02c-.2,2.1-1,3.8-3.4,4-2.3.2-3.4-1.4-3.5-3.4-.1-2.1,1.1-3.8,3.4-4,2.2-.1,3.3,1.3,3.5,3.4Z"/><path class="cls-2" d="M243.84,62.52c1.9.5,3.3,1.7,3.1,3.7-.2,2-1.2,3.8-3.6,3.7-2.2,0-3.2-1.7-3.2-3.7.2-2,1.4-3.5,3.7-3.7Z"/><path class="cls-2" d="M243.94,45.92c2.2.2,3.2,1.8,3.1,3.7s-1.2,3.6-3.4,3.6c-2.2-.1-3.6-1.6-3.4-3.8,0-2,1.3-3.5,3.7-3.5h0Z"/></svg>