<?xml version="1.0" encoding="utf-8"?>
<!-- Generator: Adobe Illustrator 27.9.4, SVG Export Plug-In . SVG Version: 9.03 Build 54784)  -->
<svg version="1.1" id="Layer_1" xmlns="http://www.w3.org/2000/svg" xmlns:xlink="http://www.w3.org/1999/xlink" x="0px" y="0px"
	 viewBox="0 0 61.1 35" style="enable-background:new 0 0 61.1 35;" xml:space="preserve">
<style type="text/css">
	.st0{fill:#191317;}
	.st1{fill:#E1D4C2;}
	.st2{fill:#FFF7EA;}
</style>
<g>
	<path class="st0" d="M24.8,34.9c-8,0-16,0-24,0c-0.2,0-0.4,0-0.6-0.1c-0.1-0.1-0.3-0.3-0.2-0.5c0.1-0.2,0.2-0.3,0.4-0.3
		c0.1,0,0.3,0,0.4,0c1.2,0,2.4,0,3.7,0c0.6,0,1.1-0.1,1.6-0.4c3-1.6,5.5-3.9,8-6c0.2-0.1,0.1-0.2,0-0.3c-0.4-0.3-0.8-0.6-1.2-0.9
		c-0.5-0.4-0.6-0.4-1.1,0c-0.8,0.7-1.7,1.4-2.5,2.1c-0.8,0.7-1.7,1.4-2.5,2.1c-0.5,0.4-0.9,0.3-1-0.3c0-0.2,0.2-0.3,0.3-0.5
		c1.9-1.6,3.7-3.1,5.6-4.7c0.6-0.5,0.8-0.5,1.4,0c0.6,0.5,1.2,0.9,1.7,1.4c0.2,0.1,0.3,0.2,0.4,0c0.3-0.3,0.7-0.6,1-0.9
		c0.2-0.1,0.2-0.2,0.1-0.4c-1.2-1.8-1.9-3.8-2.2-6c-0.5-4.1,0.3-7.8,2.7-11.2C19.3,4.4,22.6,2,26.8,1c5.4-1.3,10.3,0,14.5,3.6
		c2.4,2.1,4.2,4.6,5.1,7.7c1.2,4.3,0.9,8.4-1.3,12.4c-0.1,0.3-0.5,0.5-0.4,0.8c0.1,0.2,0.4,0.4,0.6,0.6c0.7,0.6,0.7,0.6,1.3,0
		c0.5-0.4,0.9-0.8,1.4-1.1c0.4-0.4,0.6-0.4,1,0c1.6,1.3,3.1,2.7,4.7,4.1c0.2,0.2,0.4,0.3,0.4,0.6c-0.2,0.5-0.4,0.6-0.9,0.3
		c-0.1-0.1-0.2-0.1-0.2-0.2c-1.3-1.1-2.6-2.2-4-3.4c-0.4-0.4-0.5-0.4-1,0c-0.4,0.3-0.7,0.6-1.1,0.9c-0.3,0.2-0.3,0.3,0,0.5
		c1,0.9,2.1,1.8,3.2,2.7c1.5,1.2,3,2.3,4.7,3.2c0.3,0.2,0.7,0.4,1.1,0.4c1.3,0,2.7,0,4,0c0.2,0,0.4,0,0.6,0c0.3,0,0.5,0.1,0.5,0.4
		c0,0.3-0.1,0.5-0.4,0.5c-0.1,0-0.3,0-0.4,0c-8.1,0-16.1,0-24.2,0 M17.3,24.7c2-2,4-3.9,5.9-5.8c2.3-2.3,4.6-4.6,6.9-6.8
		c0.4-0.4,0.7-0.4,1,0c2.7,2.6,5.3,5.3,8,7.9c1.5,1.5,3.1,3.1,4.6,4.6c0.2,0.2,0.2,0.2,0.4,0c0.2-0.4,0.5-0.8,0.6-1.2
		c1.6-3.6,1.8-7.3,0.6-11c-1.1-3.4-3.3-6-6.1-7.9c-3.3-2.3-7-3.1-10.9-2.5c-3.9,0.6-7,2.5-9.5,5.4c-3.2,3.7-4.2,8-3.4,12.8
		C15.7,21.6,16.3,23.2,17.3,24.7z M53.4,34c-2.4-1.5-4.5-3.3-6.6-5.2c-2.4-2.1-4.7-4.4-7-6.7c-2.2-2.2-4.3-4.4-6.6-6.6
		c-0.2-0.2-0.3-0.2-0.5,0c-0.7,0.7-1.4,1.4-2.1,2c-0.6,0.6-1.2,1.2-1.8,1.7c-0.1,0.1-0.3,0.3-0.5,0.2c-0.2-0.1-0.3-0.2-0.3-0.4
		c0-0.2,0.1-0.4,0.3-0.5c1.2-1.2,2.4-2.4,3.7-3.6c0.3-0.3,0.1-0.4-0.1-0.6c-0.2-0.3-0.3-0.1-0.5,0.1c-1.2,1.2-2.4,2.3-3.6,3.5
		c-0.2,0.2-0.3,0.3-0.5,0.5c-0.2,0.2-0.5,0.1-0.6-0.1c-0.2-0.2-0.2-0.4,0.1-0.6c0.1-0.1,0.2-0.2,0.3-0.3c1.2-1.2,2.4-2.4,3.6-3.5
		c0.3-0.3,0.1-0.4,0-0.6c-0.2-0.3-0.3-0.1-0.4,0.1c-2.3,2.3-4.7,4.5-7,6.8c-3.1,3.1-6.2,6.3-9.5,9.1c-1.9,1.6-3.9,3.3-6,4.7
		c0,0-0.1,0.1,0,0.1C7.8,34,7.9,34,8,34c5.8,0,11.6,0,17.4,0c0.3,0,0.3-0.1,0.4-0.3c0.2-1.2,0.1-2.5,0.2-3.7c0-0.2-0.1-0.2-0.3-0.2
		c-0.5,0-1.1,0-1.6,0c-0.6,0-1-0.4-0.9-1c0-0.1,0-0.2,0.2-0.1c0.6,0.1,1.1,0,1.7,0c0.3,0,0.8,0.1,0.9-0.1c0.2-0.2,0-0.6,0.1-1
		c0-0.2-0.1-0.3-0.3-0.3c-0.5,0-1,0-1.6,0c-0.2,0-0.4,0-0.4-0.2c-0.1-0.2-0.1-0.5-0.2-0.7c4.7,0.2,9.4,0.2,14.1,0
		c-0.1,0.2-0.1,0.3-0.1,0.5c0,0.3-0.2,0.4-0.4,0.4c-0.3,0-0.5,0-0.8,0c-0.3,0-0.8-0.1-0.9,0.1c-0.2,0.2,0,0.7-0.1,1
		c0,0.1,0,0.2,0.2,0.2c0.8,0,1.6,0.1,2.4,0c0.1,0,0.2,0,0.2,0.1c0.1,0.5-0.4,1-0.8,1c-0.5,0-1.1,0-1.6,0c-0.2,0-0.3,0-0.2,0.2
		c0,1.2,0,2.4,0.1,3.7c0,0.3,0.1,0.4,0.5,0.4c5.1,0,10.2,0,15.3,0C52,34,52.7,34,53.4,34z M30.7,33.9C30.7,33.9,30.7,33.9,30.7,33.9
		c1.1,0,2.1,0,3.2,0c0.2,0,0.3,0,0.3-0.3c0-1.2,0-2.5,0-3.7c0-0.2-0.1-0.3-0.3-0.3c-2.2,0-4.4,0-6.5,0c-0.2,0-0.3,0-0.3,0.3
		c0,1.2,0,2.5,0,3.7c0,0.2,0.1,0.3,0.3,0.3C28.5,33.9,29.6,33.9,30.7,33.9z M28.6,28.6c0.2,0,0.4,0,0.5,0c1,0,1,0,1-1
		c0-0.2-0.1-0.3-0.3-0.3c-0.6,0-1.1,0-1.7,0c-0.3,0-0.8-0.1-1,0.1c-0.2,0.2,0,0.7-0.1,1c0,0,0,0,0,0c0,0.2,0.1,0.2,0.2,0.2
		C27.8,28.6,28.2,28.6,28.6,28.6z M32.7,28.6c0.4,0,0.8,0,1.2,0c0.2,0,0.3,0,0.3-0.2c0-0.3,0-0.5,0-0.8c0-0.2-0.1-0.3-0.3-0.3
		c-0.8,0-1.6,0-2.4,0c-0.2,0-0.3,0-0.3,0.2c0,0.3,0,0.5,0,0.8c0,0.2,0.1,0.3,0.3,0.3C31.9,28.6,32.3,28.6,32.7,28.6z"/>
	<path class="st1" d="M4.7,31.1c-0.2,0,0.7-0.7,1.1-0.9c0.1,0.6,0.5,0.7,1,0.3c0.8-0.7,1.7-1.4,2.5-2.1c0.8-0.7,1.6-1.4,2.5-2.1
		c0.5-0.4,0.6-0.4,1.1,0c0.4,0.3,0.8,0.6,1.2,0.9c0.1,0.1,0.2,0.2,0,0.3c-2.5,2.2-5,4.4-8,6c-0.5,0.3-1,0.4-1.6,0.4
		c-1.2,0-2.4,0-3.7,0c0.3-0.4,0.8-0.6,1.2-0.9c0.5-0.4,0.9-0.7,1.4-1L4.7,31.1z"/>
	<path class="st1" d="M57.2,31.8c0.3,0.4,0.8,0.6,1.2,0.9c0.5,0.4,1.2,0.7,1.7,1.2c-1.3,0-2.7,0-4,0c-0.4,0-0.7-0.3-1.1-0.4
		c-1.7-0.9-3.2-2-4.7-3.2c-1.1-0.9-2.1-1.8-3.2-2.7c-0.3-0.2-0.2-0.3,0-0.5c0.4-0.3,0.7-0.6,1.1-0.9c0.5-0.3,0.5-0.3,1,0
		c1.3,1.1,2.6,2.2,4,3.4c0.1,0.1,0.2,0.1,0.2,0.2c0.4,0.3,0.7,0.2,0.9-0.3c0.5,0.1,0.9,0.5,1.3,0.8c0.2,0.2,0.5,0.3,0.7,0.6
		L57.2,31.8z"/>
	<path class="st2" d="M17.3,24.7c-1-1.5-1.6-3-1.9-4.7c-0.9-4.8,0.2-9.1,3.4-12.8c2.5-3,5.7-4.9,9.5-5.4c3.9-0.6,7.6,0.2,10.9,2.5
		c2.9,2,5,4.6,6.1,7.9c1.2,3.7,1,7.4-0.6,11c-0.2,0.4-0.5,0.8-0.6,1.2c-0.1,0.2-0.2,0.2-0.4,0c-1.5-1.5-3.1-3.1-4.6-4.6
		c-2.7-2.6-5.3-5.3-8-7.9c-0.4-0.3-0.6-0.3-1,0c-2.3,2.3-4.6,4.6-6.9,6.8C21.2,20.8,19.2,22.7,17.3,24.7z"/>
	<path class="st2" d="M53.4,34c-0.7,0-1.5,0-2.2,0c-5.1,0-10.2,0-15.3,0c-0.3,0-0.4-0.1-0.5-0.4c-0.1-1.2-0.1-2.4-0.1-3.7
		c0-0.2,0.1-0.2,0.2-0.2c0.5,0,1.1,0,1.6,0c0.5,0,0.9-0.5,0.8-1c0-0.1,0-0.2-0.2-0.1c-0.8,0.1-1.6,0-2.4,0c-0.2,0-0.2-0.1-0.2-0.2
		c0-0.3-0.1-0.8,0.1-1c0.2-0.2,0.6-0.1,0.9-0.1c0.3,0,0.5,0,0.8,0c0.3,0,0.4-0.1,0.4-0.4c0-0.2,0.1-0.3,0.1-0.5
		c-4.7,0.2-9.4,0.2-14.1,0c0.1,0.2,0.1,0.5,0.2,0.7c0.1,0.2,0.3,0.2,0.4,0.2c0.5,0,1,0,1.6,0c0.2,0,0.3,0,0.3,0.3
		c0,0.3,0.1,0.8-0.1,1c-0.2,0.2-0.6,0.1-0.9,0.1c-0.6,0-1.1,0.1-1.7,0c-0.1,0-0.2,0-0.2,0.1c0,0.5,0.4,1,0.9,1c0.5,0,1.1,0,1.6,0
		c0.2,0,0.3,0,0.3,0.2c-0.1,1.2,0,2.5-0.2,3.7c0,0.2-0.1,0.3-0.4,0.3c-5.8,0-11.6,0-17.4,0c-0.1,0-0.2,0-0.2,0c0-0.1,0-0.1,0-0.1
		c2.2-1.4,4.1-3,6-4.7c3.4-2.8,6.4-6,9.5-9.1c2.3-2.3,4.7-4.6,7-6.8c0.1-0.1,0.2-0.3,0.4-0.1c0.2,0.2,0.3,0.3,0,0.6
		c-1.2,1.2-2.4,2.4-3.6,3.5c-0.1,0.1-0.2,0.2-0.3,0.3c-0.2,0.2-0.2,0.4-0.1,0.6c0.2,0.2,0.4,0.3,0.6,0.1c0.2-0.1,0.4-0.3,0.5-0.5
		c1.2-1.2,2.4-2.3,3.6-3.5c0.1-0.1,0.3-0.3,0.5-0.1c0.1,0.2,0.4,0.3,0.1,0.6c-1.2,1.2-2.5,2.4-3.7,3.6c-0.2,0.2-0.3,0.3-0.3,0.5
		c0,0.2,0.1,0.3,0.3,0.4c0.2,0.1,0.4,0,0.5-0.2c0.6-0.6,1.2-1.2,1.8-1.7c0.7-0.7,1.4-1.3,2.1-2c0.2-0.2,0.3-0.2,0.5,0
		c2.2,2.1,4.4,4.4,6.6,6.6c2.3,2.3,4.5,4.6,7,6.7C48.9,30.6,51,32.4,53.4,34z M29.7,26.3c3.2,0,5.9,0,8.5-0.2c0.3,0,0.4-0.1,0.5-0.4
		c0-0.1,0.1-0.3,0.1-0.4c0-0.3,0.2-0.5,0.5-0.5c0.4,0,0.5-0.2,0.5-0.6c0-0.1,0-0.3,0-0.4c0-0.3-0.1-0.3-0.4-0.3
		c-2.1,0.4-4.2,0.6-6.3,0.7c-2,0.1-4.1,0.1-6.1,0c-1.7-0.1-3.5-0.3-5.2-0.6c-0.6-0.1-0.5-0.2-0.6,0.4c-0.1,0.6,0,0.7,0.4,0.8
		c0.4,0.1,0.6,0.2,0.6,0.6c0,0.3,0.1,0.6,0.5,0.6c0.6,0,1.2,0.1,1.8,0.1C26.5,26.3,28.4,26.3,29.7,26.3z M41.7,32.7
		c0.3,0,0.5-0.1,0.5-0.4c0-0.3-0.2-0.4-0.5-0.4c-0.2,0-0.5,0.1-0.4,0.4C41.2,32.6,41.4,32.7,41.7,32.7z M19.7,32.7
		c0.3,0,0.4-0.2,0.4-0.4c0-0.3-0.2-0.4-0.5-0.4c-0.2,0-0.4,0.2-0.4,0.4C19.2,32.6,19.4,32.7,19.7,32.7z M43.7,31.8
		c-0.3,0-0.5,0.1-0.5,0.4c0,0.3,0.2,0.4,0.5,0.4c0.2,0,0.4-0.1,0.4-0.4C44.2,32,44,31.9,43.7,31.8z M45.8,32.7
		c0.3,0,0.4-0.2,0.4-0.4c0-0.3-0.2-0.4-0.5-0.4c-0.3,0-0.5,0.1-0.5,0.5C45.3,32.6,45.5,32.7,45.8,32.7z M16,32.3
		c0-0.3-0.2-0.4-0.5-0.5c-0.2,0-0.5,0.1-0.5,0.4c0,0.3,0.2,0.4,0.5,0.5C15.8,32.7,15.9,32.5,16,32.3z M18.1,32.3
		c0-0.3-0.2-0.5-0.4-0.5c-0.3,0-0.5,0.2-0.5,0.4c0,0.3,0.2,0.4,0.4,0.4C17.8,32.7,18,32.6,18.1,32.3z"/>
	<path class="st2" d="M30.7,33.9c-1.1,0-2.2,0-3.2,0c-0.2,0-0.3,0-0.3-0.3c0-1.2,0-2.5,0-3.7c0-0.2,0.1-0.3,0.3-0.3
		c2.2,0,4.4,0,6.5,0c0.2,0,0.3,0.1,0.3,0.3c0,1.2,0,2.5,0,3.7c0,0.3-0.1,0.3-0.3,0.3C32.8,33.9,31.8,33.9,30.7,33.9
		C30.7,33.9,30.7,33.9,30.7,33.9z"/>
	<path class="st2" d="M28.6,28.6c-0.4,0-0.8,0-1.3,0c-0.2,0-0.2,0-0.2-0.2c0,0,0,0,0,0c0-0.3-0.1-0.8,0.1-1c0.2-0.2,0.6,0,1-0.1
		c0.6,0,1.1,0,1.7,0c0.2,0,0.3,0.1,0.3,0.3c0.1,1,0.1,1-1,1C29,28.6,28.8,28.6,28.6,28.6z"/>
	<path class="st2" d="M32.7,28.6c-0.4,0-0.8,0-1.2,0c-0.2,0-0.3-0.1-0.3-0.3c0-0.3,0-0.5,0-0.8c0-0.2,0.1-0.2,0.3-0.2
		c0.8,0,1.6,0,2.4,0c0.2,0,0.3,0.1,0.3,0.3c0,0.3,0,0.5,0,0.8c0,0.2-0.1,0.3-0.3,0.2C33.6,28.6,33.2,28.6,32.7,28.6z"/>
	<path class="st0" d="M29.7,26.3c-1.3,0-3.2,0-5.1-0.1c-0.6,0-1.2-0.1-1.8-0.1c-0.4,0-0.5-0.4-0.5-0.6c0-0.4-0.2-0.6-0.6-0.6
		c-0.4-0.1-0.5-0.2-0.4-0.8c0.1-0.6,0-0.5,0.6-0.4c1.7,0.3,3.5,0.5,5.2,0.6c2,0.1,4.1,0.1,6.1,0c2.1-0.1,4.2-0.2,6.3-0.7
		c0.3,0,0.4,0,0.4,0.3c0,0.1,0,0.3,0,0.4c0,0.4-0.1,0.6-0.5,0.6c-0.3,0-0.5,0.2-0.5,0.5c0,0.1-0.1,0.3-0.1,0.4
		c-0.1,0.2-0.2,0.4-0.5,0.4C35.6,26.3,33,26.3,29.7,26.3z"/>
	<path class="st0" d="M41.7,32.7c-0.3,0-0.5-0.1-0.5-0.4c0-0.3,0.2-0.4,0.4-0.4c0.3,0,0.5,0.1,0.5,0.4C42.2,32.5,42,32.6,41.7,32.7z
		"/>
	<path class="st0" d="M19.7,32.7c-0.3,0-0.5-0.1-0.5-0.4c0-0.3,0.2-0.4,0.4-0.4c0.3,0,0.5,0.1,0.5,0.4C20.1,32.5,20,32.7,19.7,32.7z
		"/>
	<path class="st0" d="M43.7,31.8c0.3,0,0.4,0.1,0.4,0.4c0,0.3-0.2,0.4-0.4,0.4c-0.3,0-0.5-0.1-0.5-0.4C43.2,32,43.5,31.9,43.7,31.8z
		"/>
	<path class="st0" d="M45.8,32.7c-0.2,0-0.5-0.1-0.5-0.4c0-0.3,0.2-0.5,0.5-0.5c0.2,0,0.5,0.1,0.5,0.4C46.2,32.5,46,32.7,45.8,32.7z
		"/>
	<path class="st0" d="M16,32.3c-0.1,0.2-0.2,0.4-0.5,0.4c-0.3,0-0.5-0.2-0.5-0.5c0-0.3,0.2-0.4,0.5-0.4C15.8,31.8,16,32,16,32.3z"/>
	<path class="st0" d="M18.1,32.3c0,0.3-0.2,0.4-0.5,0.4c-0.2,0-0.5-0.1-0.4-0.4c0-0.3,0.2-0.5,0.5-0.4C17.9,31.9,18.1,32,18.1,32.3z
		"/>
	<path class="st0" d="M31.1,4.7c0,0.3-0.1,0.5-0.4,0.5c-0.3,0-0.4-0.2-0.4-0.4c0-0.3,0.1-0.5,0.4-0.5C30.9,4.2,31,4.4,31.1,4.7z"/>
	<path class="st0" d="M30.7,8.4c0.2,0.1,0.4,0.2,0.4,0.5c0,0.3-0.2,0.5-0.5,0.5c-0.3,0-0.4-0.2-0.4-0.5C30.2,8.6,30.4,8.4,30.7,8.4z
		"/>
	<path class="st0" d="M30.7,6.3c0.3,0,0.4,0.2,0.4,0.5c0,0.2-0.1,0.5-0.4,0.4c-0.3,0-0.5-0.2-0.4-0.5C30.2,6.5,30.4,6.3,30.7,6.3z"
		/>
</g>
</svg>
