<?xml version="1.0" encoding="utf-8"?>
<!-- Generator: Adobe Illustrator 27.9.4, SVG Export Plug-In . SVG Version: 9.03 Build 54784)  -->
<svg version="1.1" id="Layer_1" xmlns="http://www.w3.org/2000/svg" xmlns:xlink="http://www.w3.org/1999/xlink" x="0px" y="0px"
	 viewBox="0 0 512 512" style="enable-background:new 0 0 512 512;" xml:space="preserve">
<style type="text/css">
	.st0{fill:#FFFFFF;}
	.st1{fill:#191317;}
	.st2{fill:#E1D4C2;}
	.st3{fill:#FFF7EA;}
</style>
<rect class="st0" width="512" height="512"/>
<g>
	<path class="st1" d="M214.2,380.1c-63.7,0-127.5,0-191.2-0.1c-1.6,0-3.3,0.1-4.6-1c-1.1-1-2-2.1-1.5-3.7c0.5-1.5,1.5-2.6,3.3-2.6
		c1.1,0,2.2-0.1,3.3-0.2c9.7,0,19.5-0.1,29.2,0.2c4.6,0.1,8.7-1,12.7-3.2c23.6-12.9,43.5-30.8,63.6-48.2c1.3-1.1,0.8-1.7-0.2-2.5
		c-3.1-2.4-6.2-5-9.3-7.4c-4.1-3.1-4.9-3.2-9,0.2c-6.7,5.4-13.2,11-19.8,16.6c-6.7,5.6-13.2,11.3-19.9,16.9
		c-3.9,3.3-7.2,2.3-7.9-2.2c0.4-1.5,1.3-2.7,2.5-3.7c14.8-12.4,29.5-24.9,44.3-37.3c4.5-3.8,6.3-3.8,10.9-0.2
		c4.6,3.8,9.3,7.5,13.9,11.4c1.3,1.1,2.2,1.2,3.6-0.1c2.5-2.5,5.2-4.9,7.9-7.2c1.3-1.1,1.4-1.9,0.4-3.2
		c-9.8-14.5-15.2-30.6-17.2-47.8c-3.7-32.4,2.3-62.5,21.4-89.6c19.7-28,45.6-47.1,79.1-54.9c43.3-10.1,82,0.1,115.9,28.5
		c19.5,16.4,33.9,36.6,41,61.3c9.8,34.1,7.2,67.1-10.3,98.5c-1.1,2-4,3.8-3.1,6.2c0.8,2,3.2,3.3,4.9,4.9c5.2,4.8,5.2,4.8,10.7,0.4
		c3.7-3,7.4-6.1,11.1-9.1c3.5-2.8,5-2.8,8.2,0c12.5,10.7,24.9,21.5,37.4,32.3c1.5,1.3,2.8,2.6,3.1,4.7c-1.6,3.9-3.6,4.5-6.9,2
		c-0.7-0.5-1.3-1-1.9-1.5c-10.5-9-21-17.9-31.6-26.9c-3.6-3.1-4.1-3.2-7.9-0.4c-2.9,2.2-5.6,4.7-8.5,6.9c-2.1,1.5-2.2,2.4-0.1,4.2
		c8.3,7.4,16.8,14.5,25.3,21.5c11.6,9.6,23.7,18.5,37.2,25.3c2.8,1.4,5.6,3.4,8.7,3.4c10.6,0.1,21.1-0.1,31.7-0.1
		c1.6,0,3.2,0.2,4.9,0.1c2.1,0,3.6,0.9,3.8,3c0.2,2.2-1,3.7-3.1,4.3c-1,0.3-2,0.1-3,0.1c-64.3,0-128.5,0-192.8,0 M153.7,298.7
		c15.9-15.6,31.5-31,47.1-46.4c18.5-18.2,36.9-36.4,55.4-54.6c3.1-3,5.3-3.1,8.1-0.3c21.1,21,42.3,41.9,63.4,62.9
		c12.3,12.2,24.7,24.5,36.9,36.8c1.3,1.3,1.9,1.7,2.9-0.3c1.6-3.2,3.7-6.1,5.2-9.3c12.9-28.7,14.5-58.2,4.7-88
		c-8.9-26.7-25.9-47.5-49-63.3c-26.3-18.1-55.5-24.5-86.8-19.9c-30.8,4.4-56,19.7-76.1,43.2c-25.2,29.6-33.8,63.8-26.8,101.8
		C141.2,274.4,145.8,286.9,153.7,298.7z M442.3,372.7c-19.1-12.1-35.9-26.7-52.7-41.2c-19.5-16.8-37.5-35.1-55.7-53.3
		c-17.5-17.5-34.6-35.2-52.4-52.3c-1.5-1.5-2.3-1.5-3.8,0c-5.4,5.5-11,10.8-16.6,16.2c-4.7,4.6-9.4,9.2-14.2,13.8
		c-1.1,1-2.3,2-4.1,1.3c-1.5-0.6-2.4-1.7-2.6-3.1c-0.3-1.9,1.1-3.2,2.3-4.4c9.8-9.6,19.5-19.3,29.5-28.7c2.5-2.3,0.6-3.2-0.5-4.8
		c-1.7-2.2-2.6-0.6-3.7,0.5c-9.6,9.3-19.1,18.5-28.7,27.8c-1.3,1.3-2.6,2.6-4.1,3.6c-1.8,1.2-3.8,0.9-5.2-0.8
		c-1.3-1.7-1.2-3.6,0.5-5.1c0.9-0.8,1.9-1.5,2.8-2.3c9.7-9.4,19.3-18.9,29.1-28.2c2.2-2.1,0.9-3.1-0.3-4.7c-1.7-2.1-2.5-0.4-3.6,0.6
		c-18.6,18.2-37.2,36.3-55.7,54.5c-24.9,24.7-49.3,49.9-76.1,72.5c-15.5,13.1-30.9,26.3-48.1,37.2c-0.4,0.2-0.6,0.5-0.3,1
		c0.6,0.5,1.3,0.3,2,0.3c46.3,0,92.5,0,138.8,0c2.2,0,2.7-0.8,3-2.7c1.5-9.9,1-19.9,1.5-29.8c0.1-1.7-0.8-1.7-2-1.7
		c-4.3,0-8.5,0-12.8,0c-4.4,0-7.7-3.5-7.4-7.8c0.1-0.8,0.2-1.3,1.3-1.1c4.4,0.9,8.9,0.3,13.4,0.3c2.6,0,6.2,1.2,7.5-0.6
		c1.3-1.7,0.3-5.1,0.5-7.7c0.1-1.8-0.6-2.2-2.2-2.1c-4.2,0.1-8.3,0-12.5-0.1c-1.4,0-3,0-3.5-1.7c-0.5-1.8-0.9-3.6-1.3-5.6
		c37.7,1.8,75.2,1.6,112.7,0.1c-0.4,1.5-1,2.8-1,4c-0.1,2.2-1.2,3-3.3,3c-2.1,0-4.3,0.1-6.4,0.3c-2.6,0.2-6.3-1.1-7.5,0.6
		c-1.3,1.8-0.4,5.2-0.5,8c0,1.2,0.1,1.9,1.6,1.9c6.3-0.2,12.6,0.4,18.8-0.4c1.2-0.2,1.4,0.1,1.5,1.1c0.5,3.8-2.9,7.8-6.7,7.8
		c-4.4,0-8.7,0-13.1-0.1c-1.4,0-2,0.2-2,1.8c0.3,9.7,0,19.5,0.9,29.2c0.2,2.4,1.1,3.3,3.8,3.3c40.6-0.1,81.1-0.1,121.7-0.1
		C430.6,372.7,436.4,372.7,442.3,372.7z M260.8,372.7C260.8,372.7,260.8,372.7,260.8,372.7c8.5-0.1,17.1-0.1,25.6,0
		c1.9,0,2.7-0.3,2.6-2.5c-0.1-9.9,0-19.7,0.1-29.6c0-1.7-0.5-2.2-2.2-2.2c-17.4,0.1-34.7,0-52.1,0c-1.6,0-2.3,0.3-2.3,2.1
		c0.1,10,0.1,19.9,0,29.9c0,1.9,0.6,2.3,2.4,2.3C243.5,372.7,252.1,372.7,260.8,372.7z M244.4,330c1.4,0,2.8,0,4.3,0
		c8.2,0,8.1,0,7.6-8.3c-0.1-1.6-0.6-2.1-2.2-2c-4.5,0.1-8.9,0-13.4,0c-2.6,0-6.1-1.2-7.6,0.4c-1.6,1.7-0.3,5.2-0.5,7.9
		c0,0.1,0,0.2,0,0.3c-0.2,1.3,0.4,1.7,1.7,1.7C237.7,330,241,330,244.4,330z M277.2,330c3.2,0,6.5-0.1,9.7,0c1.5,0,2.3-0.2,2.1-2
		c-0.2-2.1-0.1-4.3,0-6.4c0.1-1.6-0.5-2.1-2.1-2c-6.5,0.1-13,0.1-19.5,0c-1.5,0-2.2,0.2-2.1,2c0.2,2.1,0.1,4.3,0,6.4
		c-0.1,1.6,0.5,2.1,2.1,2C270.7,330,274,330,277.2,330z"/>
	<path class="st2" d="M53.9,349.9c-1.4,0,5.5-5.3,9-7c0.7,4.5,4,5.5,7.9,2.2c6.7-5.6,13.3-11.3,19.9-16.9
		c6.6-5.6,13.1-11.2,19.8-16.6c4.1-3.3,4.9-3.3,9-0.2c3.2,2.4,6.2,4.9,9.3,7.4c1,0.8,1.5,1.4,0.2,2.5c-20.2,17.5-40,35.3-63.6,48.2
		c-4,2.2-8.1,3.4-12.7,3.2c-9.7-0.3-19.5-0.2-29.2-0.2c2.3-3.5,6.3-4.7,9.5-7.2c3.7-2.8,7.5-5.4,11.3-8.1L53.9,349.9z"/>
	<path class="st2" d="M471.8,355.6c2.6,3.2,6.4,4.8,9.4,7.4c4.2,3.5,9.6,5.3,13.3,9.5c-10.6,0.1-21.1,0.3-31.7,0.1
		c-3.1,0-5.9-2-8.7-3.4c-13.5-6.8-25.6-15.7-37.2-25.3c-8.5-7.1-17-14.2-25.3-21.5c-2-1.8-1.9-2.7,0.1-4.2c2.9-2.2,5.6-4.7,8.5-6.9
		c3.8-2.8,4.3-2.7,7.9,0.4c10.5,9,21,17.9,31.6,26.9c0.6,0.5,1.2,1.1,1.9,1.5c3.4,2.5,5.4,1.9,6.9-2c4,1.2,6.8,4.2,10,6.6
		c1.9,1.5,4.3,2.7,5.5,5.1L471.8,355.6z"/>
	<path class="st3" d="M153.7,298.7c-7.9-11.7-12.5-24.2-14.9-37.4c-7-38.1,1.6-72.3,26.8-101.8c20.1-23.5,45.2-38.8,76.1-43.2
		c31.3-4.5,60.5,1.9,86.8,19.9c23.1,15.9,40.2,36.6,49,63.3c9.9,29.8,8.2,59.3-4.7,88c-1.4,3.2-3.6,6.1-5.2,9.3
		c-1,2-1.6,1.7-2.9,0.3c-12.3-12.3-24.6-24.6-36.9-36.8c-21.1-21-42.3-42-63.4-62.9c-2.8-2.8-5-2.7-8.1,0.3
		c-18.5,18.2-36.9,36.4-55.4,54.6C185.2,267.6,169.6,283,153.7,298.7z"/>
	<path class="st3" d="M442.3,372.7c-5.8,0-11.7,0-17.5,0c-40.6,0-81.1,0-121.7,0.1c-2.7,0-3.6-0.9-3.8-3.3
		c-0.9-9.7-0.7-19.5-0.9-29.2c0-1.6,0.6-1.8,2-1.8c4.4,0.1,8.7,0.1,13.1,0.1c3.8,0,7.2-4,6.7-7.8c-0.1-1-0.4-1.3-1.5-1.1
		c-6.3,0.8-12.6,0.1-18.8,0.4c-1.5,0.1-1.6-0.7-1.6-1.9c0.1-2.7-0.8-6.2,0.5-8c1.3-1.7,4.9-0.4,7.5-0.6c2.1-0.1,4.3-0.2,6.4-0.3
		c2,0,3.2-0.8,3.3-3c0-1.3,0.6-2.5,1-4c-37.6,1.5-75,1.7-112.7-0.1c0.5,2,0.8,3.8,1.3,5.6c0.5,1.7,2.1,1.7,3.5,1.7
		c4.2,0.1,8.3,0.1,12.5,0.1c1.6,0,2.4,0.3,2.2,2.1c-0.2,2.6,0.8,6-0.5,7.7c-1.4,1.7-4.9,0.6-7.5,0.6c-4.5-0.1-8.9,0.5-13.4-0.3
		c-1-0.2-1.2,0.3-1.3,1.1c-0.3,4.3,3,7.8,7.4,7.8c4.3,0,8.5,0,12.8,0c1.2,0,2.1,0,2,1.7c-0.5,9.9,0,19.9-1.5,29.8
		c-0.3,1.9-0.9,2.7-3,2.7c-46.3-0.1-92.5,0-138.8,0c-0.7,0-1.4,0.2-2-0.3c-0.3-0.5,0-0.8,0.3-1c17.2-10.9,32.6-24.1,48.1-37.2
		c26.8-22.6,51.2-47.8,76.1-72.5c18.5-18.3,37.1-36.4,55.7-54.5c1-1,1.9-2.6,3.6-0.6c1.3,1.6,2.5,2.6,0.3,4.7
		c-9.8,9.3-19.4,18.8-29.1,28.2c-0.9,0.8-1.9,1.5-2.8,2.3c-1.7,1.6-1.8,3.4-0.5,5.1c1.3,1.7,3.3,2.1,5.2,0.8c1.5-1,2.8-2.3,4.1-3.6
		c9.6-9.2,19.1-18.5,28.7-27.8c1.1-1.1,2.1-2.7,3.7-0.5c1.2,1.6,3,2.5,0.5,4.8c-10,9.4-19.7,19.1-29.5,28.7
		c-1.2,1.2-2.6,2.5-2.3,4.4c0.2,1.4,1.1,2.5,2.6,3.1c1.8,0.7,3-0.3,4.1-1.3c4.8-4.6,9.5-9.2,14.2-13.8c5.5-5.4,11.1-10.7,16.6-16.2
		c1.5-1.5,2.2-1.4,3.8,0c17.8,17.1,35,34.9,52.4,52.3c18.2,18.2,36.2,36.5,55.7,53.3C406.3,346.1,423.1,360.7,442.3,372.7z
		 M253.2,311.7c25.7,0,46.9,0.2,68.1-1.7c2.3-0.2,3.5-1.1,4.3-3.1c0.4-1,0.9-2.1,1.1-3.1c0.3-2.4,1.3-3.7,4-3.8
		c2.9-0.1,4.3-1.9,4-4.9c-0.1-1-0.2-2-0.2-3c0-2.2-1-2.7-3-2.3c-16.7,3.2-33.6,4.6-50.5,5.2c-16.1,0.5-32.3,0.6-48.5-0.4
		c-13.9-0.8-27.7-2.1-41.4-4.6c-4.7-0.8-3.7-1.3-4.5,3.4c-0.8,4.4-0.1,5.9,3.1,6.3c3.2,0.5,4.6,1.9,4.9,5.1c0.2,2.1,0.9,4.9,4,5
		c4.7,0,9.3,1.1,14.1,1.2C227.6,311.4,242.6,311.8,253.2,311.7z M348.6,362.6c2.1-0.3,3.7-1.2,3.6-3.4c0-2.3-1.7-3.5-3.8-3.4
		c-1.9,0.1-3.6,1-3.6,3.3C344.9,361.7,346.6,362.4,348.6,362.6z M173.2,362.7c2.1-0.2,3.5-1.4,3.4-3.5c-0.2-2.3-1.9-3.5-4-3.4
		c-1.9,0.1-3.5,1.2-3.4,3.5C169.4,361.7,171.1,362.5,173.2,362.7z M364.7,355.8c-2,0.3-3.8,1.1-3.8,3.4c0,2.3,1.9,3.4,3.9,3.4
		c1.9,0,3.4-1.1,3.4-3.4C368.2,357,366.7,356.2,364.7,355.8z M381,362.6c2.2-0.2,3.6-1.3,3.5-3.5c0-2.2-1.7-3.3-3.7-3.3
		c-2,0.1-3.7,1.2-3.6,3.7C377.3,361.9,379.1,362.4,381,362.6z M143.7,359.5c-0.2-2.4-1.7-3.6-3.8-3.6c-2-0.1-3.6,0.9-3.7,3.2
		c-0.1,2.4,1.7,3.4,3.7,3.6C142,362.8,143.2,361.4,143.7,359.5z M160.2,359.6c0-2.4-1.5-3.6-3.5-3.7c-2.2-0.1-3.7,1.2-3.8,3.4
		c-0.1,2.2,1.7,3.2,3.6,3.4C158.4,362.8,160,361.8,160.2,359.6z"/>
	<path class="st3" d="M260.8,372.7c-8.6,0-17.3-0.1-25.9,0c-1.8,0-2.4-0.4-2.4-2.3c0.1-10,0.1-19.9,0-29.9c0-1.8,0.7-2.1,2.3-2.1
		c17.4,0.1,34.7,0.1,52.1,0c1.7,0,2.2,0.5,2.2,2.2c-0.1,9.9-0.2,19.7-0.1,29.6c0,2.1-0.8,2.5-2.6,2.5
		C277.8,372.6,269.3,372.7,260.8,372.7C260.8,372.7,260.8,372.7,260.8,372.7z"/>
	<path class="st3" d="M244.4,330c-3.3,0-6.7-0.1-10,0c-1.3,0-1.9-0.4-1.7-1.7c0-0.1,0-0.2,0-0.3c0.1-2.7-1.1-6.2,0.5-7.9
		c1.5-1.6,5-0.4,7.6-0.4c4.5-0.1,8.9,0.1,13.4,0c1.6,0,2,0.5,2.2,2c0.5,8.3,0.6,8.3-7.6,8.3C247.2,330,245.8,330,244.4,330z"/>
	<path class="st3" d="M277.2,330c-3.2,0-6.5-0.1-9.7,0c-1.6,0-2.2-0.4-2.1-2c0.1-2.1,0.1-4.3,0-6.4c-0.1-1.7,0.6-2,2.1-2
		c6.5,0.1,13,0.1,19.5,0c1.6,0,2.2,0.4,2.1,2c-0.1,2.1-0.1,4.3,0,6.4c0.1,1.7-0.6,2-2.1,2C283.7,330,280.5,330,277.2,330z"/>
	<path class="st1" d="M253.2,311.7c-10.6,0-25.6-0.3-40.6-0.6c-4.8-0.1-9.4-1.2-14.1-1.2c-3.1,0-3.7-2.9-4-5
		c-0.4-3.3-1.7-4.6-4.9-5.1c-3.2-0.5-3.9-2-3.1-6.3c0.8-4.6-0.2-4.2,4.5-3.4c13.7,2.4,27.5,3.8,41.4,4.6c16.1,0.9,32.3,0.9,48.5,0.4
		c16.9-0.6,33.8-2,50.5-5.2c2-0.4,3.1,0.1,3,2.3c0,1,0.1,2,0.2,3c0.4,3-1.1,4.8-4,4.9c-2.7,0.1-3.6,1.4-4,3.8
		c-0.2,1.1-0.7,2.1-1.1,3.1c-0.7,2-1.9,2.9-4.3,3.1C300.1,311.9,278.9,311.7,253.2,311.7z"/>
	<path class="st1" d="M348.6,362.6c-2-0.2-3.7-1-3.8-3.4c0-2.3,1.7-3.3,3.6-3.3c2.1-0.1,3.8,1,3.8,3.4
		C352.3,361.4,350.7,362.3,348.6,362.6z"/>
	<path class="st1" d="M173.2,362.7c-2.1-0.2-3.8-1-4-3.4c-0.2-2.3,1.4-3.4,3.4-3.5c2.1-0.1,3.8,1.1,4,3.4
		C176.7,361.3,175.3,362.5,173.2,362.7z"/>
	<path class="st1" d="M364.7,355.8c2,0.3,3.5,1.1,3.5,3.4c0,2.3-1.5,3.4-3.4,3.4c-2,0-3.9-1-3.9-3.4
		C360.9,356.9,362.7,356.2,364.7,355.8z"/>
	<path class="st1" d="M381,362.6c-1.9-0.2-3.6-0.7-3.7-3.1c-0.1-2.5,1.6-3.6,3.6-3.7c1.9-0.1,3.6,1.1,3.7,3.3
		C384.5,361.3,383.1,362.4,381,362.6z"/>
	<path class="st1" d="M143.7,359.5c-0.5,1.9-1.7,3.3-3.7,3.1c-2-0.2-3.8-1.2-3.7-3.6c0-2.2,1.7-3.2,3.7-3.2
		C142,355.9,143.4,357.1,143.7,359.5z"/>
	<path class="st1" d="M160.2,359.6c-0.2,2.2-1.8,3.2-3.7,3.1c-1.9-0.1-3.6-1.2-3.6-3.4c0.1-2.2,1.6-3.6,3.8-3.4
		C158.7,356,160.2,357.2,160.2,359.6z"/>
	<path class="st1" d="M263.8,139.5c-0.2,2.1-1,3.8-3.4,4c-2.3,0.2-3.4-1.4-3.5-3.4c-0.1-2.1,1.1-3.8,3.4-4
		C262.5,136,263.6,137.4,263.8,139.5z"/>
	<path class="st1" d="M260.6,169c1.9,0.5,3.3,1.7,3.1,3.7c-0.2,2-1.2,3.8-3.6,3.7c-2.2,0-3.2-1.7-3.2-3.7
		C257.1,170.7,258.3,169.2,260.6,169z"/>
	<path class="st1" d="M260.7,152.4c2.2,0.2,3.2,1.8,3.1,3.7c-0.1,1.9-1.2,3.6-3.4,3.6c-2.2-0.1-3.6-1.6-3.4-3.8
		C257.1,153.9,258.3,152.4,260.7,152.4z"/>
</g>
</svg>
